# xmcd
#
# Track frame offsets: 
#        150
#        10365
#        36547
#        47115
#        59940
#        77347
#        89445
#        102892
#        123360
#        136515
#        155790
#        168365
#        190537
#        199282
#        223132
#        237290
#        250665
#
# Disc length: 3583 seconds
#
# Revision: 0
# Processed by: cddbd v1.5.2PL0 Copyright (c) Steve Scherf et al.
# Submitted via: ExactAudioCopy v0.99pb5
#
DISCID=ed0dfd11
DTITLE=Gary Kirkland - Shootin' the Works on Love
DYEAR=2003
DGENRE=Country
TTITLE0=Shootin' The Works on Love
TTITLE1=Brighter Day
TTITLE2=Cowbow Night Herd Song
TTITLE3=Pnahandle Wind
TTITLE4=It Hurts Me Too
TTITLE5=Devil of an Angel Gal
TTITLE6=When You Go
TTITLE7=What Am I Gonna Do (With the Rest Of My Life)
TTITLE8=Bad Luck Blues
TTITLE9=Catch The Wind
TTITLE10=Whistlin' Dixie
TTITLE11=White Birds, White Snow
TTITLE12=Erie
TTITLE13=Midnight Hour Blues
TTITLE14=ESP
TTITLE15=Just For Me
TTITLE16=These Hills
EXTD=
EXTT0=
EXTT1=
EXTT2=
EXTT3=
EXTT4=
EXTT5=
EXTT6=
EXTT7=
EXTT8=
EXTT9=
EXTT10=
EXTT11=
EXTT12=
EXTT13=
EXTT14=
EXTT15=
EXTT16=
PLAYORDER=
